<svg xmlns="http://www.w3.org/2000/svg" viewBox="0 0 28 20" role="img" aria-label="United States">
  <rect width="28" height="20" rx="2" fill="#fff"/>
  <path d="M0 0h28v1.54H0zm0 3.08h28v1.54H0zm0 3.08h28v1.54H0zm0 3.08h28v1.54H0zm0 3.08h28v1.54H0zm0 3.08h28V20H0z" fill="#b22234"/>
  <rect width="12" height="10.8" fill="#3c3b6e"/>
  <g fill="#fff"><circle cx="2" cy="2" r=".45"/><circle cx="5" cy="2" r=".45"/><circle cx="8" cy="2" r=".45"/><circle cx="10.5" cy="2" r=".45"/><circle cx="3.5" cy="4" r=".45"/><circle cx="6.5" cy="4" r=".45"/><circle cx="9.5" cy="4" r=".45"/><circle cx="2" cy="6" r=".45"/><circle cx="5" cy="6" r=".45"/><circle cx="8" cy="6" r=".45"/><circle cx="10.5" cy="6" r=".45"/><circle cx="3.5" cy="8" r=".45"/><circle cx="6.5" cy="8" r=".45"/><circle cx="9.5" cy="8" r=".45"/></g>
</svg>
